<svg xmlns="http://www.w3.org/2000/svg" xmlns:xlink="http://www.w3.org/1999/xlink" width="512" zoomAndPan="magnify" viewBox="0 0 384 383.999986" height="512" preserveAspectRatio="xMidYMid meet" version="1.0"><defs><clipPath id="bdef66c773"><path d="M 18 -1.105469 L 366 -1.105469 C 370.773438 -1.105469 375.351562 0.792969 378.726562 4.167969 C 382.105469 7.542969 384 12.121094 384 16.894531 L 384 366 C 384 375.941406 375.941406 384 366 384 L 18 384 C 13.226562 384 8.648438 382.105469 5.273438 378.726562 C 1.894531 375.351562 0 370.773438 0 366 L 0 16.894531 C 0 6.953125 8.058594 -1.105469 18 -1.105469 Z M 18 -1.105469 " clip-rule="nonzero"/></clipPath><clipPath id="e8a13015f1"><path d="M 67.394531 114.09375 L 284.894531 114.09375 L 284.894531 369.09375 L 67.394531 369.09375 Z M 67.394531 114.09375 " clip-rule="nonzero"/></clipPath><clipPath id="abc7c75976"><path d="M 160 20 L 320 20 L 320 157.53125 L 160 157.53125 Z M 160 20 " clip-rule="nonzero"/></clipPath></defs><g clip-path="url(#bdef66c773)"><rect x="-38.4" width="460.8" fill="#ffffff" y="-38.399999" height="460.799983" fill-opacity="1"/></g><g clip-path="url(#e8a13015f1)"><path fill="#201e1d" d="M 176.175781 202.117188 C 116.441406 202.117188 76.3125 181.632812 76.3125 162.5 C 76.3125 143.371094 116.441406 122.886719 176.175781 122.886719 C 235.910156 122.886719 276.039062 143.371094 276.039062 162.5 C 276.039062 181.632812 235.910156 202.117188 176.175781 202.117188 Z M 276.039062 222.355469 C 276.039062 241.488281 235.910156 261.972656 176.175781 261.972656 C 116.441406 261.972656 76.3125 241.488281 76.3125 222.355469 C 76.3125 221.03125 76.511719 219.707031 76.875 218.378906 C 82.476562 224.023438 90.515625 229.136719 100.757812 233.460938 C 120.972656 241.992188 147.757812 246.691406 176.175781 246.691406 C 204.59375 246.691406 231.378906 241.992188 251.59375 233.460938 C 261.835938 229.136719 269.871094 224.023438 275.476562 218.378906 C 275.84375 219.707031 276.039062 221.03125 276.039062 222.355469 Z M 176.175781 324.550781 C 116.441406 324.550781 76.3125 304.070312 76.3125 284.9375 C 76.3125 282.933594 76.738281 280.917969 77.574219 278.917969 C 83.136719 284.292969 90.933594 289.167969 100.757812 293.3125 C 120.972656 301.847656 147.757812 306.546875 176.175781 306.546875 C 204.59375 306.546875 231.378906 301.847656 251.59375 293.3125 C 261.421875 289.167969 269.214844 284.292969 274.78125 278.917969 C 275.613281 280.917969 276.039062 282.933594 276.039062 284.9375 C 276.039062 304.070312 235.910156 324.550781 176.175781 324.550781 Z M 257.5625 336.832031 L 250.011719 339.527344 C 247.851562 340.296875 245.480469 339.175781 244.710938 337.015625 C 243.941406 334.859375 245.0625 332.488281 247.222656 331.714844 L 254.773438 329.023438 C 256.933594 328.253906 259.304688 329.378906 260.074219 331.53125 C 260.84375 333.691406 259.722656 336.0625 257.5625 336.832031 Z M 257.5625 272.980469 L 250.011719 275.671875 C 247.851562 276.445312 245.480469 275.320312 244.710938 273.164062 C 243.941406 271.007812 245.0625 268.636719 247.222656 267.863281 L 254.773438 265.167969 C 256.933594 264.402344 259.304688 265.523438 260.074219 267.679688 C 260.84375 269.835938 259.722656 272.210938 257.5625 272.980469 Z M 247.222656 208.011719 L 254.773438 205.316406 C 256.933594 204.546875 259.304688 205.671875 260.074219 207.824219 C 260.84375 209.984375 259.722656 212.355469 257.5625 213.125 L 250.011719 215.820312 C 247.851562 216.589844 245.480469 215.46875 244.710938 213.308594 C 243.941406 211.152344 245.0625 208.78125 247.222656 208.011719 Z M 251.59375 127.351562 C 231.378906 118.820312 204.59375 114.121094 176.175781 114.121094 C 147.757812 114.121094 120.972656 118.820312 100.757812 127.351562 C 79.339844 136.394531 67.542969 148.875 67.542969 162.5 L 67.542969 198.3125 C 67.542969 202.445312 68.636719 206.472656 70.746094 210.332031 C 68.621094 214.21875 67.542969 218.25 67.542969 222.355469 L 67.542969 258.164062 C 67.542969 262.789062 68.90625 267.28125 71.535156 271.550781 C 68.890625 275.855469 67.542969 280.351562 67.542969 284.9375 L 67.542969 320.746094 C 67.542969 334.371094 79.339844 346.855469 100.757812 355.894531 C 120.972656 364.425781 147.757812 369.128906 176.175781 369.128906 C 204.59375 369.128906 231.378906 364.425781 251.59375 355.894531 C 273.011719 346.855469 284.808594 334.371094 284.808594 320.746094 L 284.808594 284.9375 C 284.808594 280.351562 283.460938 275.851562 280.8125 271.550781 C 283.445312 267.28125 284.808594 262.789062 284.808594 258.164062 L 284.808594 222.355469 C 284.808594 218.25 283.730469 214.214844 281.605469 210.332031 C 283.714844 206.472656 284.808594 202.445312 284.808594 198.3125 L 284.808594 162.5 C 284.808594 148.875 273.011719 136.394531 251.59375 127.351562 " fill-opacity="1" fill-rule="nonzero"/></g><g clip-path="url(#abc7c75976)"><path fill="#000000" d="M 271.285156 92.410156 C 265.855469 92.410156 261.453125 88.015625 261.453125 82.59375 C 261.453125 77.175781 265.855469 72.78125 271.285156 72.78125 C 276.714844 72.78125 281.113281 77.175781 281.113281 82.59375 C 281.113281 88.015625 276.714844 92.410156 271.285156 92.410156 Z M 238.515625 92.410156 C 233.085938 92.410156 228.6875 88.015625 228.6875 82.59375 C 228.6875 77.175781 233.085938 72.78125 238.515625 72.78125 C 243.945312 72.78125 248.347656 77.175781 248.347656 82.59375 C 248.347656 88.015625 243.945312 92.410156 238.515625 92.410156 Z M 205.75 92.410156 C 200.320312 92.410156 195.917969 88.015625 195.917969 82.59375 C 195.917969 77.175781 200.320312 72.78125 205.75 72.78125 C 211.179688 72.78125 215.578125 77.175781 215.578125 82.59375 C 215.578125 88.015625 211.179688 92.410156 205.75 92.410156 Z M 241.089844 20.414062 C 197.019531 19.546875 160.746094 46.660156 160.066406 80.972656 C 159.832031 92.902344 163.933594 104.128906 171.234375 113.738281 L 171.230469 113.738281 C 183.78125 129.835938 170.082031 157.515625 170.082031 157.515625 L 210.53125 140.125 C 219.246094 142.871094 228.714844 144.472656 238.640625 144.667969 C 282.710938 145.535156 318.984375 118.425781 319.664062 84.113281 C 320.339844 49.800781 285.164062 21.285156 241.089844 20.414062 " fill-opacity="1" fill-rule="evenodd"/></g></svg>