<svg xmlns="http://www.w3.org/2000/svg" xmlns:xlink="http://www.w3.org/1999/xlink" width="512" zoomAndPan="magnify" viewBox="0 0 384 383.999986" height="512" preserveAspectRatio="xMidYMid meet" version="1.0"><defs><clipPath id="8acd2ebe41"><path d="M 81.027344 121.472656 L 272.277344 121.472656 L 272.277344 345.722656 L 81.027344 345.722656 Z M 81.027344 121.472656 " clip-rule="nonzero"/></clipPath><clipPath id="3c51cccce1"><path d="M 162.234375 39 L 303 39 L 303 159.898438 L 162.234375 159.898438 Z M 162.234375 39 " clip-rule="nonzero"/></clipPath></defs><g clip-path="url(#8acd2ebe41)"><path fill="#201e1d" d="M 176.679688 198.882812 C 124.152344 198.882812 88.871094 180.867188 88.871094 164.042969 C 88.871094 147.21875 124.152344 129.207031 176.679688 129.207031 C 229.203125 129.207031 264.488281 147.21875 264.488281 164.042969 C 264.488281 180.867188 229.203125 198.882812 176.679688 198.882812 Z M 264.488281 216.679688 C 264.488281 233.503906 229.203125 251.519531 176.679688 251.519531 C 124.152344 251.519531 88.871094 233.503906 88.871094 216.679688 C 88.871094 215.515625 89.042969 214.347656 89.363281 213.183594 C 94.289062 218.148438 101.355469 222.644531 110.363281 226.445312 C 128.140625 233.949219 151.691406 238.078125 176.679688 238.078125 C 201.667969 238.078125 225.21875 233.949219 242.996094 226.445312 C 252.003906 222.644531 259.066406 218.148438 263.996094 213.183594 C 264.316406 214.347656 264.488281 215.515625 264.488281 216.679688 Z M 176.679688 306.550781 C 124.152344 306.550781 88.871094 288.539062 88.871094 271.710938 C 88.871094 269.949219 89.242188 268.179688 89.976562 266.421875 C 94.867188 271.148438 101.722656 275.433594 110.363281 279.082031 C 128.140625 286.585938 151.691406 290.71875 176.679688 290.71875 C 201.667969 290.71875 225.21875 286.585938 242.996094 279.082031 C 251.636719 275.433594 258.488281 271.148438 263.382812 266.421875 C 264.117188 268.179688 264.488281 269.949219 264.488281 271.710938 C 264.488281 288.539062 229.203125 306.550781 176.679688 306.550781 Z M 248.246094 317.351562 L 241.605469 319.722656 C 239.707031 320.398438 237.621094 319.410156 236.941406 317.511719 C 236.265625 315.617188 237.253906 313.53125 239.152344 312.851562 L 245.792969 310.484375 C 247.691406 309.804688 249.777344 310.792969 250.453125 312.691406 C 251.128906 314.585938 250.144531 316.675781 248.246094 317.351562 Z M 248.246094 261.199219 L 241.605469 263.566406 C 239.707031 264.246094 237.621094 263.257812 236.941406 261.359375 C 236.265625 259.464844 237.253906 257.378906 239.152344 256.699219 L 245.792969 254.328125 C 247.691406 253.652344 249.777344 254.640625 250.453125 256.539062 C 251.128906 258.433594 250.144531 260.519531 248.246094 261.199219 Z M 239.152344 204.0625 L 245.792969 201.695312 C 247.691406 201.015625 249.777344 202.007812 250.453125 203.902344 C 251.128906 205.800781 250.144531 207.882812 248.246094 208.5625 L 241.605469 210.933594 C 239.707031 211.609375 237.621094 210.621094 236.941406 208.722656 C 236.265625 206.824219 237.253906 204.742188 239.152344 204.0625 Z M 242.996094 133.132812 C 225.21875 125.628906 201.667969 121.496094 176.679688 121.496094 C 151.691406 121.496094 128.140625 125.628906 110.363281 133.132812 C 91.53125 141.082031 81.15625 152.058594 81.15625 164.042969 L 81.15625 195.535156 C 81.15625 199.167969 82.117188 202.710938 83.972656 206.105469 C 82.105469 209.523438 81.15625 213.066406 81.15625 216.679688 L 81.15625 248.171875 C 81.15625 252.238281 82.355469 256.1875 84.667969 259.941406 C 82.339844 263.726562 81.15625 267.679688 81.15625 271.710938 L 81.15625 303.203125 C 81.15625 315.1875 91.53125 326.164062 110.363281 334.117188 C 128.140625 341.617188 151.691406 345.753906 176.679688 345.753906 C 201.667969 345.753906 225.21875 341.617188 242.996094 334.117188 C 261.828125 326.164062 272.199219 315.1875 272.199219 303.203125 L 272.199219 271.710938 C 272.199219 267.679688 271.019531 263.722656 268.6875 259.941406 C 271.003906 256.1875 272.199219 252.238281 272.199219 248.171875 L 272.199219 216.679688 C 272.199219 213.066406 271.253906 209.519531 269.386719 206.105469 C 271.242188 202.710938 272.199219 199.167969 272.199219 195.535156 L 272.199219 164.042969 C 272.199219 152.058594 261.828125 141.082031 242.996094 133.132812 " fill-opacity="1" fill-rule="nonzero"/></g><g clip-path="url(#3c51cccce1)"><path fill="#000000" d="M 260.144531 102.5625 C 255.371094 102.5625 251.507812 98.695312 251.507812 93.921875 C 251.507812 89.152344 255.371094 85.28125 260.144531 85.28125 C 264.914062 85.28125 268.777344 89.152344 268.777344 93.921875 C 268.777344 98.695312 264.914062 102.5625 260.144531 102.5625 Z M 231.355469 102.5625 C 226.585938 102.5625 222.71875 98.695312 222.71875 93.921875 C 222.71875 89.152344 226.585938 85.28125 231.355469 85.28125 C 236.125 85.28125 239.992188 89.152344 239.992188 93.921875 C 239.992188 98.695312 236.125 102.5625 231.355469 102.5625 Z M 202.570312 102.5625 C 197.800781 102.5625 193.933594 98.695312 193.933594 93.921875 C 193.933594 89.152344 197.800781 85.28125 202.570312 85.28125 C 207.339844 85.28125 211.207031 89.152344 211.207031 93.921875 C 211.207031 98.695312 207.339844 102.5625 202.570312 102.5625 Z M 233.617188 39.179688 C 194.902344 38.417969 163.035156 62.289062 162.4375 92.496094 C 162.230469 102.996094 165.835938 112.882812 172.246094 121.339844 C 183.273438 135.515625 171.238281 159.882812 171.238281 159.882812 L 206.773438 144.570312 C 214.425781 146.992188 222.746094 148.402344 231.464844 148.574219 C 270.179688 149.335938 302.050781 125.46875 302.644531 95.257812 C 303.238281 65.050781 272.335938 39.945312 233.617188 39.179688 " fill-opacity="1" fill-rule="evenodd"/></g></svg>